<svg id="Layer_1" enable-background="new 0 0 512 512" height="512" viewBox="0 0 512 512" width="512" xmlns="http://www.w3.org/2000/svg"><g><path d="m368.439 295.045h81.061c9.649 0 17.5-7.851 17.5-17.5v-106.892c0-9.649-7.851-17.5-17.5-17.5h-81.061c-9.649 0-17.5 7.851-17.5 17.5v106.892c0 9.649 7.851 17.5 17.5 17.5zm48.031-126.892h33.03c1.379 0 2.5 1.121 2.5 2.5v45.947h-35.53zm0 63.447h35.53v45.945c0 1.379-1.121 2.5-2.5 2.5h-33.03zm-50.531-60.947c0-1.379 1.121-2.5 2.5-2.5h33.03v48.447h-35.53zm0 60.947h35.53v48.445h-33.03c-1.379 0-2.5-1.121-2.5-2.5zm-288.639-201.338c-1.903-.251-7.346 3.448-6.751 7.462v65.734c0 4.143 3.357 7.5 7.5 7.5s7.5-3.357 7.5-7.5v-21.093c3.862-.02 8.304-.04 10.804-.04 14.564 0 26.413-11.687 26.413-26.051s-11.849-26.05-26.413-26.05c-.853.001-18.302.138-19.053.038zm30.466 26.012c0 5.99-5.227 11.051-11.413 11.051-2.481 0-6.869.02-10.718.039-.114-9.097.015-12.746-.063-22.14h10.781c6.186.001 11.413 5.061 11.413 11.05zm105.795 306.164c-4.143 0-7.5 3.357-7.5 7.5v19.741c0 4.143 3.357 7.5 7.5 7.5s7.5-3.357 7.5-7.5v-19.741c0-4.143-3.358-7.5-7.5-7.5zm154.878 89.5h81.061c9.649 0 17.5-7.851 17.5-17.5v-106.893c0-9.649-7.851-17.5-17.5-17.5h-81.061c-9.649 0-17.5 7.851-17.5 17.5v106.893c0 9.649 7.851 17.5 17.5 17.5zm48.031-126.893h33.03c1.379 0 2.5 1.121 2.5 2.5v45.946h-35.53zm0 63.446h35.53v45.946c0 1.379-1.121 2.5-2.5 2.5h-33.03zm-50.531-60.946c0-1.379 1.121-2.5 2.5-2.5h33.03v48.446h-35.53zm0 60.946h35.53v48.446h-33.03c-1.379 0-2.5-1.121-2.5-2.5zm-125.204-358.266c-4.143 0-7.5 3.357-7.5 7.5v65.679c0 3.651 2.63 6.772 6.229 7.392 3.769.648 15.653.158 24.331.108 4.143-.023 7.481-3.4 7.458-7.542-.023-4.128-3.376-7.458-7.499-7.458h-.043c-5.359.03-11.114.052-15.476.056v-58.235c0-4.143-3.357-7.5-7.5-7.5zm60.518 73.234v-65.734c0-4.143-3.357-7.5-7.5-7.5s-7.5 3.357-7.5 7.5v65.734c0 4.143 3.357 7.5 7.5 7.5s7.5-3.357 7.5-7.5zm55.327-58.459c5.084 0 9.986 1.496 14.177 4.328 3.432 2.317 8.096 1.416 10.414-2.016 2.318-3.433 1.416-8.095-2.016-10.414-6.679-4.512-14.486-6.898-22.575-6.898-22.259 0-40.368 18.108-40.368 40.367s18.109 40.367 40.368 40.367c8.875 0 16.837-2.913 23.028-8.427 1.21-1.078 2.362-2.267 3.423-3.53 2.662-3.173 2.249-7.903-.924-10.566-3.172-2.661-7.903-2.249-10.566.924-.597.711-1.24 1.376-1.911 1.974-3.447 3.069-7.838 4.626-13.05 4.626-13.988 0-25.368-11.38-25.368-25.367s11.38-25.368 25.368-25.368zm77.371.824c4.143 0 7.5-3.357 7.5-7.5s-3.357-7.5-7.5-7.5h-27.445c-4.143 0-7.5 3.357-7.5 7.5v65.135c0 4.143 3.357 7.5 7.5 7.5h27.445c4.143 0 7.5-3.357 7.5-7.5s-3.357-7.5-7.5-7.5h-19.945v-17.567h17.922c4.143 0 7.5-3.357 7.5-7.5s-3.357-7.5-7.5-7.5h-17.922v-17.568zm-181.667 216.964c2.361 1.057 5.071 1.057 7.432 0 11.373-5.09 21.303-12.914 28.717-22.628 9.553-12.516 14.602-27.411 14.602-43.077v-17.204c0-3.295-1.803-6.333-4.703-7.927-6.502-3.576-11.872-8.816-15.532-15.159-1.619-2.803-4.634-4.543-7.866-4.543h-37.865c-3.237 0-6.254 1.744-7.868 4.548-3.656 6.337-9.026 11.577-15.529 15.153-2.901 1.595-4.704 4.633-4.704 7.928v17.204c0 15.666 5.05 30.563 14.603 43.077 7.41 9.714 17.34 17.538 28.713 22.628zm-28.318-79.51c6.545-4.162 12.129-9.621 16.392-16.028h31.286c4.262 6.406 9.846 11.866 16.391 16.028v13.805c0 12.349-3.985 24.098-11.525 33.977-5.289 6.93-12.501 12.855-20.509 16.891-8.008-4.035-15.22-9.961-20.508-16.891-7.541-9.879-11.526-21.628-11.526-33.977v-13.805zm-5.465-112.686c0-22.259-18.108-40.367-40.367-40.367s-40.368 18.108-40.368 40.367 18.109 40.367 40.368 40.367 40.367-18.108 40.367-40.367zm-65.735 0c0-13.987 11.38-25.367 25.368-25.367 13.987 0 25.367 11.38 25.367 25.367s-11.38 25.367-25.367 25.367c-13.988 0-25.368-11.38-25.368-25.367zm-9.205 239.453h-81.061c-9.649 0-17.5 7.851-17.5 17.5v106.893c0 9.649 7.851 17.5 17.5 17.5h81.061c9.649 0 17.5-7.851 17.5-17.5v-106.893c0-9.649-7.851-17.5-17.5-17.5zm-48.031 126.893h-33.03c-1.379 0-2.5-1.121-2.5-2.5v-45.946h35.53zm0-63.447h-35.53v-45.946c0-1.379 1.121-2.5 2.5-2.5h33.03zm50.531 60.947c0 1.379-1.121 2.5-2.5 2.5h-33.03v-48.446h35.53zm0-60.947h-35.53v-48.446h33.03c1.379 0 2.5 1.121 2.5 2.5zm-2.5-220.338h-81.061c-9.649 0-17.5 7.851-17.5 17.5v106.892c0 9.649 7.851 17.5 17.5 17.5h81.061c9.649 0 17.5-7.851 17.5-17.5v-106.892c0-9.649-7.851-17.5-17.5-17.5zm-48.031 126.892h-33.03c-1.379 0-2.5-1.121-2.5-2.5v-45.945h35.53zm0-63.445h-35.53v-45.946c0-1.379 1.121-2.5 2.5-2.5h33.03zm50.531 60.945c0 1.379-1.121 2.5-2.5 2.5h-33.03v-48.445h35.53zm0-60.945h-35.53v-48.446h33.03c1.379 0 2.5 1.121 2.5 2.5zm365.939-95.967v-103.112c0-9.662-7.851-17.521-17.5-17.521h-361.47c-4.143 0-7.5 3.357-7.5 7.5s3.357 7.5 7.5 7.5h361.47c1.379 0 2.5 1.131 2.5 2.521v103.112c0 1.39-1.121 2.521-2.5 2.521h-477c-1.379 0-2.5-1.131-2.5-2.521v-103.112c0-1.39 1.121-2.521 2.5-2.521h80.53c4.143 0 7.5-3.357 7.5-7.5s-3.357-7.5-7.5-7.5h-80.53c-9.649 0-17.5 7.859-17.5 17.521v103.112c0 8.809 6.534 16.1 15 17.321v329.184c-8.466 1.221-15 8.511-15 17.321v10.021c0 9.661 7.851 17.52 17.5 17.52h477c9.649 0 17.5-7.859 17.5-17.521v-10.021c0-8.809-6.534-16.1-15-17.321v-329.184c8.466-1.221 15-8.511 15-17.32zm-482 17.52h452v328.784h-146.061v-77.503c0-4.143-3.357-7.5-7.5-7.5s-7.5 3.357-7.5 7.5v77.503h-129.878v-171.758c0-1.379 1.121-2.5 2.5-2.5h124.879c1.379 0 2.5 1.121 2.5 2.5v59.256c0 4.143 3.357 7.5 7.5 7.5s7.5-3.357 7.5-7.5v-59.256c0-9.649-7.851-17.5-17.5-17.5h-124.879c-9.649 0-17.5 7.851-17.5 17.5v171.759h-146.061zm467 356.326c0 1.39-1.121 2.521-2.5 2.521h-477c-1.379 0-2.5-1.131-2.5-2.521v-10.021c0-1.39 1.121-2.521 2.5-2.521h477c1.379 0 2.5 1.131 2.5 2.521z" fill="rgb(0,0,0)"/></g></svg>