<?xml version="1.0"?>
<svg xmlns="http://www.w3.org/2000/svg" viewBox="0 0 512 512" width="512" height="512"><g id="Outline"><path d="M459.642,296.664l-55.32-15.656L384,260.686V231.992A79.9,79.9,0,0,0,416,168v-2.414a32,32,0,0,0,0-64v-24c0-22-11.1-42.048-28.283-51.063q-.312-.163-.638-.3a133.54,133.54,0,0,0-102.158,0q-.325.135-.638.3C267.1,35.54,256,55.584,256,77.588v24a32,32,0,1,0,0,64V168a79.868,79.868,0,0,0,17.011,49.32,35.751,35.751,0,0,1-26.136-3.091,51.935,51.935,0,0,0-46.051-1.62l-1.265.577A31.359,31.359,0,0,0,200,208a32,32,0,0,0-64,0,31.359,31.359,0,0,0,.441,5.186l-1.266-.577a51.772,51.772,0,0,0-46.055,1.623,36.11,36.11,0,0,1-27.462,2.718l-3.349-1.01-4.618,15.32,3.328,1a51.822,51.822,0,0,0,12.81,2.19L16.845,340.422l.006,0A7.952,7.952,0,0,0,16,344a40.045,40.045,0,0,0,40,40h48a40.045,40.045,0,0,0,40-40,7.952,7.952,0,0,0-.851-3.575l.006,0L88.818,231.748a50.221,50.221,0,0,0,7.978-3.477,36.178,36.178,0,0,1,31.749-1.1L144,234.209V416.8a40.015,40.015,0,0,0-31.325,31.876A39.993,39.993,0,0,0,80,488a8,8,0,0,0,8,8H192V343.231a31.954,31.954,0,0,1,24.239-31.044l22.669-5.668L232.04,375.2A8,8,0,0,0,240,384h21.754l-5.515,22.06a8,8,0,0,0,3.323,8.6L328,460.281V496h16V460.281l68.438-45.625a8,8,0,0,0,3.323-8.6L410.246,384H432a8,8,0,0,0,7.96-8.8l-6.869-68.685,22.67,5.668A31.954,31.954,0,0,1,480,343.231V496h16V343.231A47.931,47.931,0,0,0,459.642,296.664ZM104,368H56a24.042,24.042,0,0,1-22.629-16h93.258A24.042,24.042,0,0,1,104,368ZM36.944,336,80,249.889,123.056,336Zm198.562-45.123L256,249.889l14.266,28.531-2.588,2.588ZM328,325.626l8-9.333,8,9.333v86.9l-8,21-8-21Zm-16,44.9-6.919-18.164L312,344.292Zm48,0V344.292l6.919,8.072Zm-61.4-35.184-17.277-45.35L296,275.314l29.1,29.1Zm74.806,0L346.9,304.418l29.1-29.1,14.68,14.68ZM368,260.686l-32,32-32-32V241.331a80.108,80.108,0,0,0,64,0Zm-80-28.694v28.694l-5.809,5.809-16.02-32.041a51.807,51.807,0,0,0,12.788-2.184l6.872-1.961Q286.9,231.169,288,231.992Zm144-98.406a16.019,16.019,0,0,1-16,16v-32A16.019,16.019,0,0,1,432,133.586Zm-160-56c0-15.994,7.611-30.369,19.419-36.736a117.457,117.457,0,0,1,89.162,0C392.389,47.219,400,61.594,400,77.588v7.267A195.151,195.151,0,0,1,386.27,58.44a8,8,0,0,0-10.15-4.347,114.855,114.855,0,0,1-80.239,0,8,8,0,0,0-10.15,4.348A195.059,195.059,0,0,1,272,84.856Zm-32,56a16.019,16.019,0,0,1,16-16v32A16.019,16.019,0,0,1,240,133.586Zm32-21.179a200.571,200.571,0,0,0,25.407-40.9,130.866,130.866,0,0,0,77.188,0,200.548,200.548,0,0,0,25.4,40.9V168a64,64,0,1,1-128,0ZM168,192a16.019,16.019,0,0,1,16,16,15.78,15.78,0,0,1-5.354,11.828A8,8,0,0,0,176,225.771V416H160V225.771a8,8,0,0,0-2.646-5.943A15.78,15.78,0,0,1,152,208,16.019,16.019,0,0,1,168,192ZM135.027,439.027A23.847,23.847,0,0,1,152,432h24v16H129.357A23.908,23.908,0,0,1,135.027,439.027ZM97.357,480A24.037,24.037,0,0,1,120,464h56v16ZM192,307.443V234.209l15.455-7.038A35.9,35.9,0,0,1,222.23,224a35.477,35.477,0,0,1,16.971,4.269,50.3,50.3,0,0,0,7.979,3.483l-32.118,64.236-2.7.676A47.929,47.929,0,0,0,192,307.443Zm81.129,97.028,6.632-26.531A8,8,0,0,0,272,368H248.84l6.6-66.049,11.81-3.936,52.361,137.447ZM400,368a8,8,0,0,0-7.761,9.94l6.632,26.531-46.486,30.991,52.361-137.447,11.81,3.936L423.16,368Z"/><path d="M300,136a12,12,0,1,0-12-12A12.013,12.013,0,0,0,300,136Z"/><path d="M372,136a12,12,0,1,0-12-12A12.013,12.013,0,0,0,372,136Z"/><path d="M312,184h14.891c13.9,0,27.091-3.228,37.14-9.09l-8.062-13.82c-7.529,4.391-18.127,6.91-29.078,6.91H312Z"/><rect x="296" y="464" width="16" height="16"/><rect x="232" y="424" width="16" height="72"/><rect x="424" y="424" width="16" height="72"/></g></svg>
